{"accessors" : [{"bufferView" : 0, "byteOffset" : 0, "componentType" : 5123, "count" : 15000, "type" : "SCALAR", "max" : [12330], "min" : [0]}, {"bufferView" : 1, "byteOffset" : 0, "componentType" : 5126, "count" : 12331, "type" : "VEC3", "max" : [1.7809480428695679, 1.3441979885101318, 1.5149110555648804], "min" : [-1.6278079748153687, -1.3421540260314941, 0.0090549997985363], "name" : "POSITION"}, {"bufferView" : 1, "byteOffset" : 12, "componentType" : 5126, "count" : 12331, "type" : "VEC2", "max" : [0.9999930262565613, -6.800000119255856E-05], "min" : [7.699999696342275E-05, -0.6099169850349426], "name" : "TEXCOORD_0"}], "asset" : {"generator" : "Aspose.3D 22.7", "version" : "2.0"}, "buffers" : [{"uri" : "data:application/octet-stream;base64,", "byteLength" : 330008}], "bufferViews" : [{"buffer" : 0, "byteOffset" : 0, "byteLength" : 30000, "target" : 34963}, {"buffer" : 0, "byteOffset" : 30004, "byteLength" : 300000, "byteStride" : 20, "target" : 34962}], "meshes" : [{"primitives" : [{"attributes" : {"POSITION" : 1, "TEXCOORD_0" : 2}, "indices" : 0, "mode" : 4}], "name" : ""}], "nodes" : [{"mesh" : 0, "name" : ""}], "scene" : 0, "scenes" : [{"nodes" : [0]}]}