<?xml version="1.0" standalone="no"?>
<!DOCTYPE svg PUBLIC "-//W3C//DTD SVG 20010904//EN"
 "http://www.w3.org/TR/2001/REC-SVG-20010904/DTD/svg10.dtd">
<svg version="1.0" xmlns="http://www.w3.org/2000/svg"
 width="158.000000pt" height="143.000000pt" viewBox="0 0 158.000000 143.000000"
 preserveAspectRatio="xMidYMid meet">

<g transform="translate(0.000000,143.000000) scale(0.100000,-0.100000)"
fill="#000000" stroke="none">
<path d="M740 1240 c-295 -5 -306 -6 -336 -27 -17 -12 -39 -34 -48 -47 -18
-28 -22 -96 -6 -112 7 -7 6 -24 -5 -53 -9 -26 -15 -77 -15 -125 0 -66 6 -93
28 -146 31 -72 121 -206 194 -289 26 -30 48 -61 48 -68 0 -6 -15 -15 -32 -18
-160 -26 -244 -35 -337 -35 -102 0 -111 -2 -139 -25 -17 -14 -35 -25 -40 -25
-6 0 -20 -12 -31 -26 -18 -23 -21 -41 -21 -135 l0 -109 751 0 751 0 -39 44
c-24 28 -54 82 -79 142 -33 83 -44 100 -79 123 -38 25 -47 26 -220 31 l-180 5
47 22 c44 20 108 90 108 118 0 7 9 20 20 30 11 10 20 26 20 36 0 10 4 28 9 41
5 13 14 41 21 63 7 22 26 69 42 105 22 47 34 94 43 170 7 58 20 122 29 144 30
71 18 136 -26 136 -10 0 -32 9 -50 20 -22 13 -48 19 -78 18 -25 -1 -182 -5
-350 -8z m382 -107 c11 -12 13 -25 8 -38 -5 -11 -9 -38 -10 -60 -1 -22 -5 -49
-9 -60 -7 -18 -9 -17 -25 13 l-17 33 -19 -23 -19 -23 -1 26 c0 14 -5 30 -12
37 -17 17 -73 15 -87 -2 -16 -19 -10 -77 9 -86 35 -17 89 -30 128 -30 23 0 42
-3 42 -6 0 -3 -18 -40 -39 -82 -21 -42 -45 -95 -51 -117 -7 -22 -16 -50 -21
-63 -5 -13 -9 -30 -9 -39 0 -9 -7 -24 -16 -34 -9 -10 -23 -33 -32 -51 -11 -21
-35 -43 -67 -60 -59 -32 -65 -33 -65 -13 0 10 -11 15 -35 15 -29 0 -40 7 -66
43 -18 23 -58 58 -90 79 -55 35 -114 108 -141 177 -6 14 -17 40 -24 58 -18 40
-18 48 1 33 13 -11 15 -4 15 53 0 42 5 68 13 76 17 14 21 89 5 108 -26 32 7
38 260 43 136 4 272 7 303 8 42 2 60 -2 71 -15z m-424 -628 c2 -2 2 -16 0 -31
l-3 -28 -29 39 -29 38 29 -7 c16 -4 30 -9 32 -11z"/>
<path d="M652 1018 c-7 -7 -12 -20 -12 -30 0 -10 -5 -18 -12 -18 -6 0 -1 -11
12 -25 26 -27 77 -34 98 -13 7 7 12 26 12 43 0 17 -5 36 -12 43 -16 16 -70 16
-86 0z"/>
<path d="M570 853 l0 -56 25 23 c30 28 32 51 7 73 -28 26 -32 21 -32 -40z"/>
<path d="M632 848 c-16 -16 -15 -63 2 -77 7 -6 16 -25 19 -41 10 -47 56 -91
107 -101 85 -16 129 -11 156 16 14 14 29 23 33 20 5 -2 16 4 25 14 16 17 15
21 -5 56 l-22 37 -59 -5 c-32 -3 -65 -11 -73 -17 -18 -15 -41 0 -51 33 -11 39
-55 77 -89 77 -17 0 -36 -5 -43 -12z"/>
</g>
</svg>
